PathFileType	4	(X/Y/Z)	..\data\2014014\dynamic\2014014_C4_04.trc
DataRate	CameraRate	NumFrames	NumMarkers	Units	OrigDataRate	OrigDataStartFrame	OrigNumFrames
100.000000	100.000000	4	48	mm	100.000000	66	178
Frame#	Time	L_IAS			L_IPS			R_IPS			R_IAS			L_FTC			L_FLE			L_FME			L_FAX			L_TTC			L_FAL			L_TAM			L_FCC			L_FM1			L_FM2			L_FM5			R_FTC			R_FLE			R_FME			R_FAX			R_TTC			R_FAL			R_TAM			R_FCC			R_FM1			R_FM2			R_FM5			CV7			TV10			SXS			SJN			L_SAA			L_SAE			L_HLE			L_HME			L_UOA			L_RSP			L_UHE			L_HM2			L_HM5			R_SAA			R_SAE			R_HLE			R_HME			R_UOA			R_RSP			R_UHE			R_HM2			R_HM5			
		X1	Y1	Z1	X2	Y2	Z2	X3	Y3	Z3	X4	Y4	Z4	X5	Y5	Z5	X6	Y6	Z6	X7	Y7	Z7	X8	Y8	Z8	X9	Y9	Z9	X10	Y10	Z10	X11	Y11	Z11	X12	Y12	Z12	X13	Y13	Z13	X14	Y14	Z14	X15	Y15	Z15	X16	Y16	Z16	X17	Y17	Z17	X18	Y18	Z18	X19	Y19	Z19	X20	Y20	Z20	X21	Y21	Z21	X22	Y22	Z22	X23	Y23	Z23	X24	Y24	Z24	X25	Y25	Z25	X26	Y26	Z26	X27	Y27	Z27	X28	Y28	Z28	X29	Y29	Z29	X30	Y30	Z30	X31	Y31	Z31	X32	Y32	Z32	X33	Y33	Z33	X34	Y34	Z34	X35	Y35	Z35	X36	Y36	Z36	X37	Y37	Z37	X38	Y38	Z38	X39	Y39	Z39	X40	Y40	Z40	X41	Y41	Z41	X42	Y42	Z42	X43	Y43	Z43	X44	Y44	Z44	X45	Y45	Z45	X46	Y46	Z46	X47	Y47	Z47	X48	Y48	Z48	

67	0.66	675.4476928710939	973.6352539062502	-119.7296566040048	468.7121582031251	997.6408691406252	-28.94627714519412	470.5750427246095	992.4871215820315	68.94627714519412	676.5920410156251	982.120544433594	159.7296566040048	570.6992187500001	880.2527465820315	-168.8364664171059	466.6511230468751	490.9426879882814	-132.8068082918402	482.342498779297	481.1578674316407	4.73616952572034	420.6064758300782	443.960906982422	-127.5034208841393	483.3534545898439	399.4129333496095	-68.54266881243612	235.4978179931641	112.5836563110352	-119.3286701318263	279.3232421875001	136.6519012451172	-17.89666597850206	176.4935302734375	95.00447082519533	-63.35014095580774	356.6557922363282	23.96830558776856	-34.67283560363096	373.0105590820313	34.65252685546876	-75.85478284948589	316.6783142089844	15.9127893447876	-136.6788472364645	625.3726806640626	881.519958496094	201.77977018891	711.0942993164064	480.3849182128907	168.1761551397474	734.0052490234376	494.5155639648439	39.89448362637252	704.8697509765626	424.078094482422	167.9111784980278	775.2126464843752	433.9541015625001	108.8162272066081	768.879333496094	57.7501907348633	159.7178475624646	803.009216308594	94.33892059326173	58.05492402872793	735.8910522460939	20.52828979492188	103.5203760469626	939.4216918945315	38.09557342529298	74.31989194537282	934.792175292969	50.44546508789064	116.2531535677032	893.688903808594	23.73441886901856	178.1868656505937	513.5289306640626	1520.445068359375	22.33197663849248	421.5098876953126	1273.4150390625	22.33197663849248	693.1538696289064	1246.120483398438	22.33197663849248	639.2723388671876	1426.14306640625	22.23227489079067	495.0815429687501	1450.228759765625	-219.6455385149378	547.7720947265626	1445.645874023438	-176.1371861577316	601.2067871093751	1114.006713867188	-258.8717543254914	553.3923339843751	1089.055419921875	-174.535390332801	564.2875366210939	1078.0556640625	-210.2361499973812	779.3150634765627	919.6560668945315	-239.5967179865834	727.9990844726564	887.8225097656252	-265.4190523397495	845.4354248046877	859.8553466796877	-244.7565623451693	762.5347290039064	811.0893554687502	-246.8581665756566	490.8692932128907	1418.604614257813	259.6455385149378	535.9917602539064	1413.668334960938	216.1373355492392	507.8663940429689	1072.947631835938	304.6079114146845	498.1527099609376	1063.084228515625	207.9388096802291	471.4293823242189	1056.431518554688	248.860189315611	592.9854736328126	815.5171508789065	279.4189228109762	520.9523925781251	823.486267089844	306.295032088454	613.6778564453126	721.2603149414064	285.0291244398524	506.9744873046876	725.8980712890626	287.1250341336798	
68	0.67	687.8965454101564	974.1220703125002	-119.7296566040048	481.1990661621095	997.8428955078127	-28.94627714519412	482.7271118164064	993.575622558594	68.94627714519412	688.7700805664064	983.985046386719	159.7296566040048	584.1682128906251	880.2007446289065	-168.8364664171059	483.5556640625001	490.0478515625001	-132.8068082918402	499.7789001464845	478.7713012695314	4.73616952572034	436.3090209960939	443.9568481445314	-127.5034208841393	498.3508911132814	397.9551696777345	-68.54266881243612	241.8243713378907	118.6484069824219	-119.3286701318263	286.7029113769532	141.3041381835938	-17.89666597850206	182.5218200683594	104.615463256836	-63.35014095580774	356.6221618652344	24.94964790344239	-34.67283560363096	373.0468444824219	34.58090972900391	-75.85478284948589	317.2870483398438	16.64901161193848	-136.6788472364645	638.2586669921876	883.6940917968752	201.77977018891	723.0593872070314	481.7649841308595	168.1761551397474	744.2081909179689	495.6156616210939	39.89448362637252	716.2662963867189	425.2251281738282	167.9111784980278	785.3679199218752	434.011932373047	108.8162272066081	770.724792480469	57.84762573242189	159.7178475624646	803.9807739257815	93.09116363525392	58.05492402872793	735.3219604492189	21.18379592895508	103.5203760469626	940.2442016601565	32.84657669067384	74.31989194537282	937.176940917969	46.34365463256837	116.2531535677032	894.7752685546877	21.22179603576661	178.1868656505937	525.1443481445314	1521.402587890625	22.33197663849248	433.3339233398439	1274.259399414063	22.33197663849248	705.0582885742189	1247.220336914063	22.33197663849248	650.9636230468751	1427.153442382813	22.23227489079067	506.7369384765626	1451.492065429688	-219.6455385149378	559.4234619140626	1446.899780273438	-176.1371861577316	610.0228271484376	1114.579833984375	-258.8717543254914	562.5414428710939	1090.321044921875	-174.535390332801	572.8095092773439	1079.154174804688	-210.2361499973812	786.233337402344	918.034851074219	-239.5967179865834	733.9629516601564	886.8883056640627	-265.4190523397495	851.5395507812502	857.4512329101565	-244.7565623451693	767.5443725585939	809.7308349609377	-246.8581665756566	502.1762084960939	1419.375610351563	259.6455385149378	547.6095581054689	1414.166015625	216.1373355492392	521.1030273437501	1073.270263671875	304.6079114146845	511.4522399902345	1063.313598632813	207.9388096802291	484.6062622070314	1056.800659179688	248.860189315611	605.6671142578126	815.731384277344	279.4189228109762	533.8710327148439	823.8975219726565	306.295032088454	626.0053100585939	721.2700805664064	285.0291244398524	519.5140380859376	726.4607543945314	287.1250341336798	
69	0.68	700.0750732421876	974.7630615234377	-119.7296566040048	493.4585571289064	998.1643066406252	-28.94627714519412	494.7409057617189	994.8276977539065	68.94627714519412	700.7986450195314	986.0411376953127	159.7296566040048	597.5833740234376	880.1475219726565	-168.8364664171059	501.5005493164064	489.0211791992189	-132.8068082918402	518.6561889648439	476.0953369140626	4.73616952572034	453.1388549804689	443.8852844238282	-127.5034208841393	514.4425659179689	396.4514160156251	-68.54266881243612	249.2457122802735	125.3101348876953	-119.3286701318263	295.2309875488282	146.3617095947266	-17.89666597850206	189.8446044921875	115.0779037475586	-63.35014095580774	356.9449768066407	26.41222190856934	-34.67283560363096	373.4314270019532	34.73224258422852	-75.85478284948589	318.3420410156251	18.11719131469727	-136.6788472364645	650.8616333007814	885.9869384765627	201.77977018891	734.4318237304689	483.137176513672	168.1761551397474	753.9863281250001	496.7273254394532	39.89448362637252	727.0543823242189	426.4177246093751	167.9111784980278	795.0021972656252	434.1120605468751	108.8162272066081	772.1631469726565	58.11302947998048	159.7178475624646	804.546813964844	92.0359573364258	58.05492402872793	734.8708496093751	21.75233840942383	103.5203760469626	940.8197021484377	28.48597145080567	74.31989194537282	939.1738281250002	43.08381271362305	116.2531535677032	895.5242919921877	19.37730407714844	178.1868656505937	536.7689819335939	1522.528076171875	22.33197663849248	445.1017456054689	1275.30810546875	22.33197663849248	716.8993530273439	1248.467651367188	22.33197663849248	662.6518554687501	1428.342163085938	22.23227489079067	518.4190063476564	1452.990844726563	-219.6455385149378	571.1076049804689	1448.40185546875	-176.1371861577316	618.6371459960939	1115.389038085938	-258.8717543254914	571.5169677734376	1091.926513671875	-174.535390332801	581.1143188476564	1080.564819335938	-210.2361499973812	792.6614379882815	916.3491210937502	-239.5967179865834	739.3372192382814	886.0176391601565	-265.4190523397495	857.0131835937502	854.8592529296877	-244.7565623451693	771.7999267578127	808.3814697265627	-246.8581665756566	513.5128784179689	1420.3486328125	259.6455385149378	559.2277832031251	1414.921508789063	216.1373355492392	534.4102783203126	1073.884643554688	304.6079114146845	524.8772583007814	1063.8095703125	207.9388096802291	497.8584289550782	1057.432983398438	248.860189315611	618.6411132812501	816.3099365234377	279.4189228109762	547.1115112304689	824.6201782226565	306.295032088454	638.7174682617189	721.6518554687501	285.0291244398524	532.4475097656251	727.3347778320314	287.1250341336798	
70	0.6900000000000001	711.9304199218751	975.5286865234377	-119.7296566040048	505.4471130371095	998.5896606445315	-28.94627714519412	506.5915832519532	996.2020263671877	68.94627714519412	712.6574707031251	988.2009887695315	159.7296566040048	610.8446655273439	880.0888671875002	-168.8364664171059	520.4454956054689	487.8848876953126	-132.8068082918402	538.9090576171876	473.200164794922	4.73616952572034	471.0873107910157	443.7595825195314	-127.5034208841393	531.6143798828126	394.9350585937501	-68.54266881243612	257.8202209472657	132.5796661376953	-119.3286701318263	304.9300231933594	151.8291625976563	-17.89666597850206	198.5207672119141	126.3098449707032	-63.35014095580774	357.8377380371094	28.43904113769532	-34.67283560363096	374.3641967773438	35.21141433715821	-75.85478284948589	320.0249633789063	20.48442840576172	-136.6788472364645	663.1232910156251	888.3015136718752	201.77977018891	745.0496826171876	484.4254455566407	168.1761551397474	763.2482299804689	497.7772827148439	39.89448362637252	737.0606079101564	427.5829162597657	167.9111784980278	803.9964599609377	434.203826904297	108.8162272066081	773.2593994140627	58.50373458862306	159.7178475624646	804.8057861328127	91.18899536132814	58.05492402872793	734.6011352539064	22.21503639221192	103.5203760469626	941.2158813476565	25.07497024536134	74.31989194537282	940.8206176757815	40.68518066406251	116.2531535677032	896.0322265625002	18.17860412597657	178.1868656505937	548.3948974609376	1523.77978515625	22.33197663849248	456.797088623047	1276.523071289063	22.33197663849248	728.6622924804689	1249.810913085938	22.33197663849248	674.3284912109376	1429.660034179688	22.23227489079067	530.1047973632814	1454.672973632813	-219.6455385149378	582.7998657226564	1450.099731445313	-176.1371861577316	627.0660400390626	1116.40087890625	-258.8717543254914	580.3318481445314	1093.82421875	-174.535390332801	589.2290649414064	1082.246948242188	-210.2361499973812	798.6233520507815	914.5933837890627	-239.5967179865834	744.1666870117189	885.2064208984377	-265.4190523397495	861.8753051757815	852.0773925781252	-244.7565623451693	775.3447265625002	807.044128417969	-246.8581665756566	524.9027099609376	1421.4736328125	259.6455385149378	570.8645019531251	1415.890991210938	216.1373355492392	547.7510375976564	1074.748901367188	304.6079114146845	538.3693847656251	1064.538208007813	207.9388096802291	511.1484985351564	1058.283325195313	248.860189315611	631.9044189453126	817.2280883789065	279.4189228109762	560.6699829101564	825.6094360351565	306.295032088454	651.8366699218751	722.3819580078126	285.0291244398524	545.7935180664064	728.4686889648439	287.1250341336798	
